<svg viewBox="0 0 24 24" id="Flat_Color" data-name="Flat Color" xmlns="http://www.w3.org/2000/svg" fill="#16212C" stroke="#16212C" stroke-width="0.624"><g id="SVGRepo_bgCarrier" stroke-width="0"></g><g id="SVGRepo_tracerCarrier" stroke-linecap="round" stroke-linejoin="round"></g><g id="SVGRepo_iconCarrier"><path id="primary" d="M20.88,20.52l-5.12-9.47a2,2,0,0,0-3.52,0L10.67,14l-.37-.77a2,2,0,0,0-3.6,0L3.1,20.56A1,1,0,0,0,4,22H20a1,1,0,0,0,.86-.49A1,1,0,0,0,20.88,20.52Z" style="fill:#00C5E1"></path><path id="secondary" d="M21,22H3a1,1,0,0,1,0-2H21a1,1,0,0,1,0,2ZM6,2a4,4,0,1,0,4,4A4,4,0,0,0,6,2Z" style="fill:#00C5E1"></path></g></svg>